<?xml version="1.0" standalone="no"?>
<!DOCTYPE svg PUBLIC "-//W3C//DTD SVG 20010904//EN"
 "http://www.w3.org/TR/2001/REC-SVG-20010904/DTD/svg10.dtd">
<svg version="1.0" xmlns="http://www.w3.org/2000/svg"
 width="838.000000pt" height="838.000000pt" viewBox="0 0 838.000000 838.000000"
 preserveAspectRatio="xMidYMid meet">
<metadata>
Created by potrace 1.11, written by Peter Selinger 2001-2013
</metadata>
<g transform="translate(0.000000,838.000000) scale(0.100000,-0.100000)"
fill="#000000" stroke="none">
<path d="M3586 8247 c-45 -45 -68 3 271 -564 128 -216 242 -397 253 -403 31
-17 55 -12 81 18 47 50 569 868 569 891 0 12 -11 33 -25 46 l-24 25 -228 0
c-125 0 -373 3 -549 7 l-322 6 -26 -26z"/>
<path d="M4693 7857 c-28 -45 -49 -85 -47 -89 3 -5 18 -8 34 -8 16 0 94 -11
174 -25 1196 -206 2233 -986 2766 -2080 154 -316 257 -630 320 -970 46 -254
55 -359 55 -685 0 -326 -9 -431 -55 -685 -199 -1080 -867 -2031 -1820 -2587
-442 -258 -897 -413 -1439 -490 -135 -19 -199 -22 -481 -22 -343 0 -469 11
-741 64 -1161 230 -2160 1000 -2679 2065 -188 386 -294 744 -356 1205 -27 193
-27 707 0 900 62 461 168 819 356 1205 449 922 1264 1631 2237 1949 163 53
387 108 533 131 58 10 111 19 117 21 8 2 -4 31 -33 81 -25 43 -49 82 -54 86
-4 5 -48 1 -96 -8 -720 -133 -1377 -448 -1919 -919 -774 -673 -1251 -1602
-1356 -2641 -16 -155 -16 -575 0 -730 105 -1039 582 -1968 1356 -2641 632
-550 1398 -877 2260 -965 155 -16 575 -16 730 0 657 67 1232 263 1775 604 958
602 1625 1610 1804 2728 39 242 49 376 49 639 0 345 -32 623 -109 939 -385
1578 -1682 2761 -3299 3006 -28 4 -33 0 -82 -78z"/>
<path d="M4494 7543 c-179 -277 -223 -340 -250 -358 -39 -26 -140 -33 -180
-12 -47 25 -75 62 -193 260 l-113 188 -31 -6 c-18 -3 -88 -14 -156 -26 -69
-11 -193 -38 -277 -59 -148 -38 -381 -113 -396 -128 -4 -4 251 -622 567 -1372
317 -751 577 -1372 580 -1380 4 -12 -9 -20 -47 -32 -29 -9 -60 -19 -68 -22
-12 -5 -135 279 -595 1373 -526 1252 -582 1380 -600 1374 -39 -11 -241 -113
-365 -184 -619 -354 -1139 -909 -1456 -1551 -27 -54 -46 -99 -44 -101 3 -3
625 -266 1384 -585 758 -320 1380 -583 1382 -585 6 -6 -49 -127 -58 -127 -4 0
-628 261 -1385 580 -1025 432 -1379 577 -1384 568 -16 -25 -81 -214 -120 -346
-161 -552 -186 -1167 -68 -1744 49 -242 159 -594 183 -585 6 3 631 267 1388
586 758 320 1382 581 1386 581 10 0 64 -121 58 -128 -3 -2 -629 -267 -1393
-589 -763 -321 -1390 -587 -1392 -589 -7 -7 69 -169 136 -292 308 -557 774
-1043 1314 -1370 134 -81 415 -225 430 -220 6 2 244 559 530 1238 286 679 551
1310 590 1401 l70 167 67 -23 c37 -13 66 -28 64 -34 -1 -9 -960 -2290 -1152
-2742 l-28 -66 117 -41 c325 -116 680 -185 1029 -200 507 -22 961 45 1419 209
133 48 141 52 133 72 -4 12 -268 639 -585 1392 -318 754 -581 1380 -585 1391
-8 19 -2 25 53 52 34 17 65 28 69 24 3 -4 272 -639 597 -1411 325 -772 593
-1406 595 -1409 8 -7 259 123 386 200 521 315 973 779 1280 1313 70 122 174
334 167 341 -2 3 -635 271 -1406 596 -1384 583 -1402 590 -1423 572 -11 -11
-19 -14 -16 -9 2 6 18 40 36 77 18 37 32 72 32 78 0 5 4 10 8 10 5 0 643 -267
1418 -594 l1409 -594 33 91 c256 705 284 1517 76 2236 -51 178 -126 382 -138
377 -6 -2 -632 -266 -1391 -586 -759 -321 -1388 -585 -1397 -587 -10 -3 -18 0
-18 6 0 6 -14 42 -32 79 -18 37 -34 72 -36 77 -3 6 5 2 16 -9 21 -18 38 -11
1404 564 761 320 1389 586 1396 589 24 13 -131 302 -282 526 -290 430 -694
815 -1136 1083 -106 64 -358 197 -388 204 -12 3 -190 -413 -1004 -2348 l-182
-431 -62 31 c-34 17 -63 34 -63 37 -1 4 260 626 579 1384 319 758 580 1381
580 1385 0 3 -15 11 -32 17 -18 6 -86 30 -151 53 -213 74 -483 135 -779 175
l-48 6 -56 -88z m-1980 -762 c37 -41 19 -69 -104 -164 -63 -48 -161 -129 -218
-178 -174 -154 -440 -478 -568 -692 -64 -108 -83 -125 -120 -108 -36 16 -48
55 -27 94 111 216 426 609 637 797 147 130 334 270 361 270 12 0 30 -9 39 -19z
m144 -429 c27 -34 12 -56 -138 -199 -155 -150 -294 -303 -381 -423 -58 -80
-77 -94 -112 -81 -25 10 -37 29 -37 60 0 48 237 330 441 525 151 144 189 164
227 118z m136 -494 c26 -37 19 -56 -47 -126 -34 -37 -95 -106 -136 -154 -57
-69 -79 -88 -99 -88 -32 0 -62 27 -62 56 0 26 84 134 197 254 83 88 117 101
147 58z m1558 -1377 c119 -46 232 -158 280 -279 32 -83 32 -261 -1 -344 -47
-121 -159 -232 -279 -280 -83 -32 -261 -32 -344 0 -121 48 -234 161 -278 280
-27 71 -37 197 -21 274 35 168 174 316 342 363 77 21 226 14 301 -14z m2058
-2061 c11 -11 20 -28 20 -39 0 -32 -137 -220 -254 -348 -52 -57 -204 -185
-268 -227 -50 -33 -108 4 -94 58 3 13 54 62 121 115 122 98 193 174 313 336
40 55 81 106 90 113 23 18 49 15 72 -8z m496 -95 c21 -32 16 -43 -71 -174
-189 -283 -495 -601 -769 -797 -49 -35 -98 -64 -108 -64 -38 0 -58 19 -58 55
0 31 7 40 78 92 145 108 247 196 378 327 169 169 283 308 414 506 50 75 56 80
92 80 19 0 33 -8 44 -25z"/>
</g>
</svg>
